{
  "asset": {
    "version": "2.0",
    "generator": "THREE.GLTFExporter"
  },
  "scenes": [
    {
      "name": "AuxScene",
      "nodes": [
        3
      ]
    }
  ],
  "scene": 0,
  "nodes": [
    {
      "matrix": [
        0.65,
        0,
        0,
        0,
        0,
        1.15,
        0,
        0,
        0,
        0,
        0.42,
        0,
        0,
        0,
        0,
        1
      ],
      "mesh": 1
    },
    {
      "matrix": [
        0.62,
        0,
        0,
        0,
        0,
        0.95,
        0,
        0,
        0,
        0,
        0.52,
        0,
        0,
        0,
        0.13,
        1
      ],
      "mesh": 2
    },
    {
      "matrix": [
        0.758419483098748,
        0,
        -0.6517667432879863,
        0,
        0,
        1,
        0,
        0,
        0.6517667432879863,
        0,
        0.758419483098748,
        0,
        5.5,
        -5.1,
        6.4,
        1
      ],
      "children": [
        0,
        1
      ]
    },
    {
      "matrix": [
        0.9999935200069984,
        0,
        -0.0035999922240050387,
        0,
        0,
        1,
        0,
        0,
        0.0035999922240050387,
        0,
        0.9999935200069984,
        0,
        0,
        6.5,
        0,
        1
      ],
      "mesh": 0,
      "children": [
        2
      ]
    }
  ],
  "bufferViews": [
    {
      "buffer": 0,
      "byteOffset": 0,
      "byteLength": 288,
      "target": 34962,
      "byteStride": 12
    },
    {
      "buffer": 0,
      "byteOffset": 288,
      "byteLength": 288,
      "target": 34962,
      "byteStride": 12
    },
    {
      "buffer": 0,
      "byteOffset": 576,
      "byteLength": 192,
      "target": 34962,
      "byteStride": 8
    },
    {
      "buffer": 0,
      "byteOffset": 768,
      "byteLength": 12,
      "target": 34963
    },
    {
      "buffer": 0,
      "byteOffset": 780,
      "byteLength": 12,
      "target": 34963
    },
    {
      "buffer": 0,
      "byteOffset": 792,
      "byteLength": 12,
      "target": 34963
    },
    {
      "buffer": 0,
      "byteOffset": 804,
      "byteLength": 12,
      "target": 34963
    },
    {
      "buffer": 0,
      "byteOffset": 816,
      "byteLength": 12,
      "target": 34963
    },
    {
      "buffer": 0,
      "byteOffset": 828,
      "byteLength": 12,
      "target": 34963
    },
    {
      "buffer": 0,
      "byteOffset": 840,
      "byteLength": 13068,
      "target": 34962,
      "byteStride": 12
    },
    {
      "buffer": 0,
      "byteOffset": 13908,
      "byteLength": 13068,
      "target": 34962,
      "byteStride": 12
    },
    {
      "buffer": 0,
      "byteOffset": 26976,
      "byteLength": 8712,
      "target": 34962,
      "byteStride": 8
    },
    {
      "buffer": 0,
      "byteOffset": 35688,
      "byteLength": 11904,
      "target": 34963
    },
    {
      "buffer": 0,
      "byteOffset": 47592,
      "byteLength": 3468,
      "target": 34962,
      "byteStride": 12
    },
    {
      "buffer": 0,
      "byteOffset": 51060,
      "byteLength": 3468,
      "target": 34962,
      "byteStride": 12
    },
    {
      "buffer": 0,
      "byteOffset": 54528,
      "byteLength": 2312,
      "target": 34962,
      "byteStride": 8
    },
    {
      "buffer": 0,
      "byteOffset": 56840,
      "byteLength": 2880,
      "target": 34963
    }
  ],
  "buffers": [
    {
      "byteLength": 59720,
      "uri": "data:application/octet-stream;base64,"
    }
  ],
  "accessors": [
    {
      "bufferView": 0,
      "componentType": 5126,
      "count": 24,
      "max": [
        5.5,
        6.5,
        6.400000095367432
      ],
      "min": [
        -5.5,
        -6.5,
        -6.400000095367432
      ],
      "type": "VEC3"
    },
    {
      "bufferView": 1,
      "componentType": 5126,
      "count": 24,
      "max": [
        1,
        1,
        1
      ],
      "min": [
        -1,
        -1,
        -1
      ],
      "type": "VEC3"
    },
    {
      "bufferView": 2,
      "componentType": 5126,
      "count": 24,
      "max": [
        1,
        1
      ],
      "min": [
        0,
        0
      ],
      "type": "VEC2"
    },
    {
      "bufferView": 3,
      "componentType": 5123,
      "count": 6,
      "max": [
        3
      ],
      "min": [
        0
      ],
      "type": "SCALAR"
    },
    {
      "bufferView": 4,
      "componentType": 5123,
      "count": 6,
      "max": [
        7
      ],
      "min": [
        4
      ],
      "type": "SCALAR"
    },
    {
      "bufferView": 5,
      "componentType": 5123,
      "count": 6,
      "max": [
        11
      ],
      "min": [
        8
      ],
      "type": "SCALAR"
    },
    {
      "bufferView": 6,
      "componentType": 5123,
      "count": 6,
      "max": [
        15
      ],
      "min": [
        12
      ],
      "type": "SCALAR"
    },
    {
      "bufferView": 7,
      "componentType": 5123,
      "count": 6,
      "max": [
        19
      ],
      "min": [
        16
      ],
      "type": "SCALAR"
    },
    {
      "bufferView": 8,
      "componentType": 5123,
      "count": 6,
      "max": [
        23
      ],
      "min": [
        20
      ],
      "type": "SCALAR"
    },
    {
      "bufferView": 9,
      "componentType": 5126,
      "count": 1089,
      "max": [
        0.3799999952316284,
        0.3799999952316284,
        0.3799999952316284
      ],
      "min": [
        -0.3799999952316284,
        -0.3799999952316284,
        -0.3799999952316284
      ],
      "type": "VEC3"
    },
    {
      "bufferView": 10,
      "componentType": 5126,
      "count": 1089,
      "max": [
        1,
        1,
        1
      ],
      "min": [
        -1,
        -1,
        -1
      ],
      "type": "VEC3"
    },
    {
      "bufferView": 11,
      "componentType": 5126,
      "count": 1089,
      "max": [
        1.015625,
        1
      ],
      "min": [
        -0.015625,
        0
      ],
      "type": "VEC2"
    },
    {
      "bufferView": 12,
      "componentType": 5123,
      "count": 5952,
      "max": [
        1088
      ],
      "min": [
        0
      ],
      "type": "SCALAR"
    },
    {
      "bufferView": 13,
      "componentType": 5126,
      "count": 289,
      "max": [
        0.18000000715255737,
        0.18000000715255737,
        0.18000000715255737
      ],
      "min": [
        -0.18000000715255737,
        -0.18000000715255737,
        -0.18000000715255737
      ],
      "type": "VEC3"
    },
    {
      "bufferView": 14,
      "componentType": 5126,
      "count": 289,
      "max": [
        1,
        1,
        1
      ],
      "min": [
        -1,
        -1,
        -1
      ],
      "type": "VEC3"
    },
    {
      "bufferView": 15,
      "componentType": 5126,
      "count": 289,
      "max": [
        1.03125,
        1
      ],
      "min": [
        -0.03125,
        0
      ],
      "type": "VEC2"
    },
    {
      "bufferView": 16,
      "componentType": 5123,
      "count": 1440,
      "max": [
        288
      ],
      "min": [
        0
      ],
      "type": "SCALAR"
    }
  ],
  "materials": [
    {
      "pbrMetallicRoughness": {
        "metallicFactor": 0.1,
        "roughnessFactor": 0.7,
        "baseColorTexture": {
          "index": 0
        }
      }
    },
    {
      "pbrMetallicRoughness": {
        "metallicFactor": 0.1,
        "roughnessFactor": 0.7,
        "baseColorTexture": {
          "index": 0
        }
      }
    },
    {
      "pbrMetallicRoughness": {
        "metallicFactor": 0,
        "roughnessFactor": 0.35,
        "baseColorTexture": {
          "index": 1
        }
      }
    },
    {
      "pbrMetallicRoughness": {
        "baseColorFactor": [
          0.0196078431372549,
          0.0196078431372549,
          0.0196078431372549,
          1
        ],
        "metallicFactor": 0,
        "roughnessFactor": 0.9
      }
    },
    {
      "pbrMetallicRoughness": {
        "metallicFactor": 0.15,
        "roughnessFactor": 0.6,
        "baseColorTexture": {
          "index": 2
        }
      }
    },
    {
      "pbrMetallicRoughness": {
        "metallicFactor": 0.1,
        "roughnessFactor": 0.7,
        "baseColorTexture": {
          "index": 0
        }
      }
    },
    {
      "pbrMetallicRoughness": {
        "baseColorFactor": [
          0.9333333333333333,
          0.9333333333333333,
          0.9333333333333333,
          1
        ],
        "metallicFactor": 0.98,
        "roughnessFactor": 0.08
      },
      "name": "Silver_Casing"
    },
    {
      "pbrMetallicRoughness": {
        "baseColorFactor": [
          0.0784313725490196,
          0.054901960784313725,
          0.0392156862745098,
          1
        ],
        "metallicFactor": 0.05,
        "roughnessFactor": 0.92
      },
      "name": "Black_Stone_Core"
    }
  ],
  "textures": [
    {
      "sampler": 0,
      "source": 0
    },
    {
      "sampler": 1,
      "source": 1
    },
    {
      "sampler": 2,
      "source": 2
    }
  ],
  "samplers": [
    {
      "magFilter": 9729,
      "minFilter": 9987,
      "wrapS": 33071,
      "wrapT": 33071
    },
    {
      "magFilter": 9729,
      "minFilter": 9987,
      "wrapS": 33071,
      "wrapT": 33071
    },
    {
      "magFilter": 9729,
      "minFilter": 9987,
      "wrapS": 33071,
      "wrapT": 33071
    }
  ],
  "images": [
    {
      "mimeType": "image/png",
      "uri": "data:image/png;base64,"
    },
    {
      "mimeType": "image/png",
      "uri": "data:image/png;base64,"
    },
    {
      "mimeType": "image/png",
      "uri": "data:image/png;base64,"
    }
  ],
  "meshes": [
    {
      "primitives": [
        {
          "mode": 4,
          "attributes": {
            "POSITION": 0,
            "NORMAL": 1,
            "TEXCOORD_0": 2
          },
          "indices": 3,
          "material": 0
        },
        {
          "mode": 4,
          "attributes": {
            "POSITION": 0,
            "NORMAL": 1,
            "TEXCOORD_0": 2
          },
          "indices": 4,
          "material": 1
        },
        {
          "mode": 4,
          "attributes": {
            "POSITION": 0,
            "NORMAL": 1,
            "TEXCOORD_0": 2
          },
          "indices": 5,
          "material": 2
        },
        {
          "mode": 4,
          "attributes": {
            "POSITION": 0,
            "NORMAL": 1,
            "TEXCOORD_0": 2
          },
          "indices": 6,
          "material": 3
        },
        {
          "mode": 4,
          "attributes": {
            "POSITION": 0,
            "NORMAL": 1,
            "TEXCOORD_0": 2
          },
          "indices": 7,
          "material": 4
        },
        {
          "mode": 4,
          "attributes": {
            "POSITION": 0,
            "NORMAL": 1,
            "TEXCOORD_0": 2
          },
          "indices": 8,
          "material": 5
        }
      ]
    },
    {
      "primitives": [
        {
          "mode": 4,
          "attributes": {
            "POSITION": 9,
            "NORMAL": 10,
            "TEXCOORD_0": 11
          },
          "indices": 12,
          "material": 6
        }
      ]
    },
    {
      "primitives": [
        {
          "mode": 4,
          "attributes": {
            "POSITION": 13,
            "NORMAL": 14,
            "TEXCOORD_0": 15
          },
          "indices": 16,
          "material": 7
        }
      ]
    }
  ]
}